<svg width="45" height="13" viewBox="0 0 45 13" fill="none" xmlns="http://www.w3.org/2000/svg">
<path d="M0.176 10V1.6H3.68C4.216 1.6 4.668 1.68 5.036 1.84C5.404 2 5.68 2.24 5.864 2.56C6.056 2.872 6.152 3.256 6.152 3.712C6.152 4.168 6.024 4.556 5.768 4.876C5.52 5.196 5.172 5.416 4.724 5.536V5.296C5.1 5.376 5.428 5.52 5.708 5.728C5.988 5.928 6.204 6.18 6.356 6.484C6.516 6.788 6.596 7.136 6.596 7.528C6.596 7.928 6.532 8.284 6.404 8.596C6.284 8.9 6.1 9.156 5.852 9.364C5.612 9.572 5.32 9.732 4.976 9.844C4.632 9.948 4.24 10 3.8 10H0.176ZM1.472 8.752H3.728C4.056 8.752 4.332 8.704 4.556 8.608C4.788 8.512 4.964 8.372 5.084 8.188C5.212 7.996 5.276 7.768 5.276 7.504C5.276 7.256 5.208 7.044 5.072 6.868C4.944 6.692 4.76 6.56 4.52 6.472C4.28 6.376 3.996 6.328 3.668 6.328H1.472V8.752ZM1.472 5.08H3.608C3.848 5.08 4.06 5.032 4.244 4.936C4.436 4.84 4.584 4.708 4.688 4.54C4.8 4.372 4.856 4.18 4.856 3.964C4.856 3.604 4.736 3.328 4.496 3.136C4.256 2.944 3.912 2.848 3.464 2.848H1.472V5.08ZM10.4443 10.12C9.92425 10.12 9.44825 9.976 9.01625 9.688C8.59225 9.4 8.25225 9.008 7.99625 8.512C7.74025 8.016 7.61225 7.456 7.61225 6.832C7.61225 6.2 7.74025 5.64 7.99625 5.152C8.26025 4.656 8.61225 4.268 9.05225 3.988C9.50025 3.708 10.0003 3.568 10.5523 3.568C10.8803 3.568 11.1803 3.616 11.4523 3.712C11.7243 3.808 11.9603 3.944 12.1603 4.12C12.3683 4.288 12.5363 4.484 12.6643 4.708C12.8003 4.932 12.8843 5.172 12.9163 5.428L12.6403 5.332V3.7H13.8883V10H12.6403V8.5L12.9283 8.416C12.8803 8.632 12.7803 8.844 12.6283 9.052C12.4843 9.252 12.2963 9.432 12.0643 9.592C11.8403 9.752 11.5883 9.88 11.3083 9.976C11.0363 10.072 10.7483 10.12 10.4443 10.12ZM10.7683 8.98C11.1443 8.98 11.4763 8.888 11.7643 8.704C12.0523 8.52 12.2763 8.268 12.4363 7.948C12.6043 7.62 12.6883 7.248 12.6883 6.832C12.6883 6.424 12.6043 6.06 12.4363 5.74C12.2763 5.42 12.0523 5.168 11.7643 4.984C11.4763 4.8 11.1443 4.708 10.7683 4.708C10.4003 4.708 10.0723 4.8 9.78425 4.984C9.50425 5.168 9.28025 5.42 9.11225 5.74C8.95225 6.06 8.87225 6.424 8.87225 6.832C8.87225 7.248 8.95225 7.62 9.11225 7.948C9.28025 8.268 9.50425 8.52 9.78425 8.704C10.0723 8.888 10.4003 8.98 10.7683 8.98ZM16.394 10V2.092H17.63V10H16.394ZM15.086 4.9V3.7H19.094V4.9H15.086ZM20.2195 10V3.7H21.4675V5.68L21.3475 5.2C21.4355 4.896 21.5835 4.62 21.7915 4.372C22.0075 4.124 22.2515 3.928 22.5235 3.784C22.8035 3.64 23.0915 3.568 23.3875 3.568C23.5235 3.568 23.6515 3.58 23.7715 3.604C23.8995 3.628 23.9995 3.656 24.0715 3.688L23.7475 5.032C23.6515 4.992 23.5435 4.96 23.4235 4.936C23.3115 4.904 23.1995 4.888 23.0875 4.888C22.8715 4.888 22.6635 4.932 22.4635 5.02C22.2715 5.1 22.0995 5.216 21.9475 5.368C21.8035 5.512 21.6875 5.684 21.5995 5.884C21.5115 6.076 21.4675 6.288 21.4675 6.52V10H20.2195ZM25.2633 10V3.7H26.4993V10H25.2633ZM25.8633 2.308C25.5993 2.308 25.3953 2.24 25.2513 2.104C25.1073 1.968 25.0353 1.776 25.0353 1.528C25.0353 1.296 25.1073 1.108 25.2513 0.964C25.4033 0.82 25.6073 0.748 25.8633 0.748C26.1273 0.748 26.3313 0.816 26.4753 0.952C26.6193 1.088 26.6913 1.28 26.6913 1.528C26.6913 1.76 26.6153 1.948 26.4633 2.092C26.3193 2.236 26.1193 2.308 25.8633 2.308ZM28.3992 12.64V3.7H29.6472V5.14L29.4552 5.032C29.5032 4.792 29.6392 4.564 29.8632 4.348C30.0872 4.124 30.3592 3.944 30.6792 3.808C31.0072 3.664 31.3432 3.592 31.6872 3.592C32.2552 3.592 32.7592 3.732 33.1992 4.012C33.6392 4.292 33.9872 4.676 34.2432 5.164C34.4992 5.652 34.6272 6.212 34.6272 6.844C34.6272 7.468 34.4992 8.028 34.2432 8.524C33.9952 9.012 33.6512 9.4 33.2112 9.688C32.7712 9.968 32.2752 10.108 31.7232 10.108C31.3552 10.108 30.9992 10.036 30.6552 9.892C30.3112 9.74 30.0192 9.548 29.7792 9.316C29.5392 9.084 29.3912 8.844 29.3352 8.596L29.6472 8.428V12.64H28.3992ZM31.5192 8.968C31.8872 8.968 32.2152 8.876 32.5032 8.692C32.7912 8.508 33.0192 8.256 33.1872 7.936C33.3552 7.616 33.4392 7.252 33.4392 6.844C33.4392 6.436 33.3552 6.076 33.1872 5.764C33.0272 5.444 32.8032 5.192 32.5152 5.008C32.2272 4.824 31.8952 4.732 31.5192 4.732C31.1432 4.732 30.8112 4.824 30.5232 5.008C30.2352 5.184 30.0072 5.432 29.8392 5.752C29.6712 6.072 29.5872 6.436 29.5872 6.844C29.5872 7.252 29.6712 7.616 29.8392 7.936C30.0072 8.256 30.2352 8.508 30.5232 8.692C30.8112 8.876 31.1432 8.968 31.5192 8.968ZM38.3935 10.12C37.8735 10.12 37.3975 9.976 36.9655 9.688C36.5415 9.4 36.2015 9.008 35.9455 8.512C35.6895 8.016 35.5615 7.456 35.5615 6.832C35.5615 6.2 35.6895 5.64 35.9455 5.152C36.2095 4.656 36.5615 4.268 37.0015 3.988C37.4495 3.708 37.9495 3.568 38.5015 3.568C38.8295 3.568 39.1295 3.616 39.4015 3.712C39.6735 3.808 39.9095 3.944 40.1095 4.12C40.3175 4.288 40.4855 4.484 40.6135 4.708C40.7495 4.932 40.8335 5.172 40.8655 5.428L40.5895 5.332V3.7H41.8375V10H40.5895V8.5L40.8775 8.416C40.8295 8.632 40.7295 8.844 40.5775 9.052C40.4335 9.252 40.2455 9.432 40.0135 9.592C39.7895 9.752 39.5375 9.88 39.2575 9.976C38.9855 10.072 38.6975 10.12 38.3935 10.12ZM38.7175 8.98C39.0935 8.98 39.4255 8.888 39.7135 8.704C40.0015 8.52 40.2255 8.268 40.3855 7.948C40.5535 7.62 40.6375 7.248 40.6375 6.832C40.6375 6.424 40.5535 6.06 40.3855 5.74C40.2255 5.42 40.0015 5.168 39.7135 4.984C39.4255 4.8 39.0935 4.708 38.7175 4.708C38.3495 4.708 38.0215 4.8 37.7335 4.984C37.4535 5.168 37.2295 5.42 37.0615 5.74C36.9015 6.06 36.8215 6.424 36.8215 6.832C36.8215 7.248 36.9015 7.62 37.0615 7.948C37.2295 8.268 37.4535 8.52 37.7335 8.704C38.0215 8.888 38.3495 8.98 38.7175 8.98ZM43.5872 10V1.12H44.8232V10H43.5872Z" fill="black"/>
</svg>
